<svg id="Слой_1" data-name="Слой 1" xmlns="http://www.w3.org/2000/svg" viewBox="0 0 1700.48 1071.63"><defs><style>.cls-1{fill:#dde8fd;}.cls-2{fill:#fff;}.cls-3{fill:#060534;}.cls-4{fill:#f37a50;}.cls-5{fill:#de623c;}.cls-6{fill:#08074d;}.cls-7{fill:#fd7166;}.cls-8{fill:#c95a51;}.cls-9{fill:#95a6db;}.cls-10{fill:#2d2c61;}.cls-11{fill:#d66056;}.cls-12{fill:#768fdb;}.cls-13{fill:#7c9af2;}.cls-14{fill:#6a86ce;}.cls-15{fill:#a7c1e9;}.cls-16{fill:#070635;}.cls-17{fill:#809df2;}.cls-18{fill:#b4c2f0;}.cls-19{fill:#9eb7ff;}</style></defs><path class="cls-1" d="M987.15,1421.83c-119.45-112-282.71-227.56-218.69-402.19,42.1-114.86,145.35-146.87,231.17-217.7,42.35-35,15.71-85.83,14.92-136.32-1.79-129.32,165.87-229.66,320-227.57,167,2.27,239.23,146.75,379.28,154.5,55,.72,104.24-27.06,152.9-49.13,144.17-65.38,372.94-23.69,384.5,134.45,3,85.4-109.93,222.79,3.21,267.71,90.16,35.79,181.25,49,197.5,177,21.27,167.58-91.17,259.56-237.68,302.68Z" transform="translate(-754.06 -360)"/><path class="cls-2" d="M1015,784.53h139.36c17.25,0,31.23,14.36,31.23,32.07v66.7c0,17.71-14,32.07-31.23,32.07h-1l11.19,38.47a1.79,1.79,0,0,1-2.78,2l-51.64-40.44H1015c-17.25,0-31.24-14.36-31.24-32.07V816.6C983.73,798.89,997.72,784.53,1015,784.53Z" transform="translate(-754.06 -360)"/><path class="cls-1" d="M1154.26,840.54H1020.47A15.67,15.67,0,0,1,1005,824.67h0a15.67,15.67,0,0,1,15.46-15.88h133.79a15.67,15.67,0,0,1,15.46,15.88h0A15.67,15.67,0,0,1,1154.26,840.54Z" transform="translate(-754.06 -360)"/><path class="cls-1" d="M1154.26,889H1020.47A15.67,15.67,0,0,1,1005,873.14h0a15.67,15.67,0,0,1,15.46-15.87h133.79a15.67,15.67,0,0,1,15.46,15.87h0A15.67,15.67,0,0,1,1154.26,889Z" transform="translate(-754.06 -360)"/><path class="cls-2" d="M1867.81,604.49h-152c-18.82,0-34.07,15.66-34.07,35V712.2c0,19.32,15.25,35,34.07,35H1717l-12.19,42a2,2,0,0,0,3,2.15l56.31-44.11h103.7c18.81,0,34.07-15.65,34.07-35V639.46C1901.88,620.15,1886.62,604.49,1867.81,604.49Z" transform="translate(-754.06 -360)"/><rect class="cls-1" x="945.71" y="274.22" width="180.5" height="31.75" rx="15.87"/><rect class="cls-1" x="950.66" y="322.22" width="102.57" height="31.75" rx="15.87"/><path class="cls-2" d="M853.61,1143.45q8.64-6.71,20.74-6.7c17.41,0,26.63,9.72,26.63,23.39,0,7.89-3.72,15.91-11.27,23.92-9.6,10.39-16.51,15.51-20.87,15.51a7.3,7.3,0,0,1-7.29-7.49c0-3.68,3.33-7.36,9.09-12.75a5.49,5.49,0,0,1,1-.92c6.53-6.17,8.58-9.59,8.58-13.8,0-5.26-3.46-8.15-8.45-8.15a26.92,26.92,0,0,0-8.2,1.58,25.69,25.69,0,0,1-6.91,1.58,8.11,8.11,0,0,1-7.68-8.42C849,1148.44,850.54,1145.82,853.61,1143.45Zm17.54,87.67c-7.81,0-13.06-6-13.06-13.41a12.66,12.66,0,0,1,13.06-12.35c6.78,0,12,6,12,12.35C883.18,1224.94,878.19,1231.12,871.15,1231.12Z" transform="translate(-754.06 -360)"/><path class="cls-2" d="M1899.48,848.5a21.6,21.6,0,0,1,13.64-4.41c11.45,0,17.51,6.4,17.51,15.39,0,5.18-2.44,10.46-7.41,15.73-6.31,6.83-10.86,10.2-13.72,10.2a4.81,4.81,0,0,1-4.8-4.93c0-2.42,2.19-4.84,6-8.38a3.74,3.74,0,0,1,.67-.61c4.3-4.06,5.64-6.31,5.64-9.07,0-3.46-2.27-5.36-5.55-5.36a17.35,17.35,0,0,0-5.39,1,16.9,16.9,0,0,1-4.55,1,5.32,5.32,0,0,1-5-5.53C1896.45,851.79,1897.46,850.06,1899.48,848.5ZM1911,906.16a8.48,8.48,0,0,1-8.59-8.82,8.33,8.33,0,0,1,8.59-8.13,8.18,8.18,0,0,1,7.91,8.13C1918.93,902.09,1915.65,906.16,1911,906.16Z" transform="translate(-754.06 -360)"/><path class="cls-2" d="M2168.07,871.8H2008.23a5.19,5.19,0,0,1-5.12-5.26V725.27a5.12,5.12,0,1,1,10.23,0v136h154.73a5.26,5.26,0,0,1,0,10.51Z" transform="translate(-754.06 -360)"/><path class="cls-2" d="M2020.33,837.26a5.05,5.05,0,0,1-3.56-1.47,5.35,5.35,0,0,1-.12-7.43l51.66-54.87a5,5,0,0,1,6.46-.76L2099.2,789,2125,758.27a5,5,0,0,1,7.22-.55,5.36,5.36,0,0,1,.54,7.41L2104,799.34a5,5,0,0,1-6.66,1l-24.64-16.42L2024,835.66A5,5,0,0,1,2020.33,837.26Z" transform="translate(-754.06 -360)"/><polygon class="cls-2" points="1378.77 420.8 1371.48 405.63 1355.79 400.49 1390.72 382.68 1378.77 420.8"/><path class="cls-2" d="M1077.44,655.67c-17.07,0-31-14.26-31-31.79s13.89-31.8,31-31.8,31,14.27,31,31.8S1094.51,655.67,1077.44,655.67Zm0-54.83c-12.37,0-22.44,10.33-22.44,23s10.07,23,22.44,23,22.43-10.33,22.43-23S1089.81,600.84,1077.44,600.84Z" transform="translate(-754.06 -360)"/><path class="cls-1" d="M2022.08,908.7c-12.51,0-22.68-10.45-22.68-23.29s10.17-23.28,22.68-23.28,22.68,10.44,22.68,23.28S2034.58,908.7,2022.08,908.7Zm0-40.16a16.88,16.88,0,1,0,16.43,16.87A16.67,16.67,0,0,0,2022.08,868.54Z" transform="translate(-754.06 -360)"/><path class="cls-2" d="M831.44,1036.35c-11.23,0-20.36-9.38-20.36-20.91s9.13-20.91,20.36-20.91,20.37,9.38,20.37,20.91S842.67,1036.35,831.44,1036.35Zm0-36.06a15.16,15.16,0,1,0,14.76,15.15A15,15,0,0,0,831.44,1000.29Z" transform="translate(-754.06 -360)"/><path class="cls-2" d="M1923.06,562.94A11.08,11.08,0,1,1,1912,551.56,11.23,11.23,0,0,1,1923.06,562.94Z" transform="translate(-754.06 -360)"/><path class="cls-1" d="M952,773.54c0,12.35-9.75,22.37-21.78,22.37s-21.79-10-21.79-22.37,9.76-22.36,21.79-22.36S952,761.19,952,773.54Z" transform="translate(-754.06 -360)"/><path class="cls-1" d="M1823.67,526.51a16.38,16.38,0,1,1-16.37-16.82A16.6,16.6,0,0,1,1823.67,526.51Z" transform="translate(-754.06 -360)"/><path class="cls-1" d="M2069.4,922.58a14,14,0,1,1-14-14.35A14.17,14.17,0,0,1,2069.4,922.58Z" transform="translate(-754.06 -360)"/><path class="cls-2" d="M1948.4,605.78A17.44,17.44,0,1,1,1931,587.89,17.67,17.67,0,0,1,1948.4,605.78Z" transform="translate(-754.06 -360)"/><path class="cls-2" d="M1146.86,573.28a17.69,17.69,0,1,1-17.68-18.15A17.92,17.92,0,0,1,1146.86,573.28Z" transform="translate(-754.06 -360)"/><path class="cls-3" d="M2349.59,1431.63H876.13c-4.81,0-8.71-2.84-8.71-6.35h0c0-3.5,3.9-6.34,8.71-6.34H2349.59c4.81,0,8.71,2.84,8.71,6.34h0C2358.3,1428.79,2354.4,1431.63,2349.59,1431.63Z" transform="translate(-754.06 -360)"/><polygon id="v-2" class="cls-4" points="528.55 515.87 528.57 515.87 544.63 515.93 548.27 554.88 529.52 565.04 509.53 555 512.76 515.93 528.55 515.87"/><path class="cls-4" d="M1238.48,858.68c9.89,25.36,33.63,39.46,53,31.49s27.11-35,17.23-60.36-33.63-39.46-53-31.48S1228.6,833.32,1238.48,858.68Z" transform="translate(-754.06 -360)"/><path d="M1300.3,838.14a3.57,3.57,0,0,0,5.06.93,3.79,3.79,0,0,0,.91-5.19,3.59,3.59,0,0,0-5.06-.94A3.81,3.81,0,0,0,1300.3,838.14Z" transform="translate(-754.06 -360)"/><path d="M1273.08,849.54a3.86,3.86,0,0,0,5.48,1,4.11,4.11,0,0,0,1-5.62,3.87,3.87,0,0,0-5.47-1A4.1,4.1,0,0,0,1273.08,849.54Z" transform="translate(-754.06 -360)"/><path class="cls-5" d="M1294.78,844.09c4.92,4,11.06,8.78,11.06,8.78s.06,6.08-6.86,8.71c2.51-2.33,4.71-5.43,2.1-9S1294.78,844.09,1294.78,844.09Z" transform="translate(-754.06 -360)"/><path class="cls-3" d="M1265.92,847.11a1.51,1.51,0,0,1-.42-.05,1.87,1.87,0,0,1-1.34-2.24c.63-2.73,3.29-7.9,8.82-7.93a1.86,1.86,0,0,1,0,3.72c-4.09,0-5.3,5-5.31,5.07A1.83,1.83,0,0,1,1265.92,847.11Z" transform="translate(-754.06 -360)"/><path class="cls-3" d="M1296.5,830.25a1.4,1.4,0,0,1-.76-.22,1.55,1.55,0,0,1-.54-2.12,7.43,7.43,0,0,1,4.65-3.42c2.05-.39,4.17.3,6.3,2a1.57,1.57,0,0,1,.23,2.18,1.48,1.48,0,0,1-2.12.25,4.84,4.84,0,0,0-3.86-1.43,4.39,4.39,0,0,0-2.6,1.94A1.5,1.5,0,0,1,1296.5,830.25Z" transform="translate(-754.06 -360)"/><path class="cls-3" d="M1225,839.74c-8.37-24.44,12-38.49,12-38.49s-5.46-.5-6.12-8.38a19.76,19.76,0,0,0,12.71-.28c27.14-10.09,45.84-10,45.84,2,0,4.24,17.92,1.33,16.42,29.89.11-2-6.3-13.76-12.35-14.93s-.59,7.14-13.24,8.92-22.15-1.38-30,6c-6.1,6.44-7.61,39.25-6.69,41.22C1241.49,861.15,1228.66,850.48,1225,839.74Z" transform="translate(-754.06 -360)"/><path class="cls-3" d="M1312.48,844.09s1.15,14.88-.94,19.49c-2.17-6-6.84.35-11.23.95-10.6,1.44-29.72-2.19-31.61,14.13-13,4.21-25.09-24.26-25.09-24.26-.74,31.8,21.92,49.86,54.54,44.57C1319.64,895.49,1321.64,864.77,1312.48,844.09Z" transform="translate(-754.06 -360)"/><path class="cls-5" d="M1290.14,874.58a26.88,26.88,0,0,1-6.54-2.63,1.25,1.25,0,0,1-.5-1.68,1.2,1.2,0,0,1,1.64-.51c5,2.75,9.51,3.54,13.36,2.33a12.77,12.77,0,0,0,7-5.65,1.19,1.19,0,0,1,1.63-.52,1.25,1.25,0,0,1,.51,1.67,15,15,0,0,1-8.36,6.86A15.84,15.84,0,0,1,1290.14,874.58Z" transform="translate(-754.06 -360)"/><path class="cls-4" d="M1243.31,854.61c5.45,3.15,7.84,9.41,5.33,14s-9,5.75-14.41,2.6-7.85-9.41-5.34-14S1237.85,851.47,1243.31,854.61Z" transform="translate(-754.06 -360)"/><path class="cls-5" d="M1242.48,868.34a1.28,1.28,0,0,0,.41-.48c1.5-2.85,1.26-5.75-.65-7.77a6.46,6.46,0,0,0-7.51-1.41,1.42,1.42,0,0,0-.61,1.89,1.36,1.36,0,0,0,1.84.61,3.84,3.84,0,0,1,4.32.87c1.06,1.12,1.14,2.71.21,4.48a1.42,1.42,0,0,0,.55,1.9A1.34,1.34,0,0,0,1242.48,868.34Z" transform="translate(-754.06 -360)"/><path d="M1301.2,1396c3.41-9.53,10.72-10.59,10.72-10.59,14.2,20.12,49.08,7.77,47.92,35-53-.35-75.07,0-75.07,0,.06-6.25,1.11-21.08,2.34-26.89l2.76.52Z" transform="translate(-754.06 -360)"/><path d="M1221.85,1396.55c3.41-9.53,10.72-10.59,10.72-10.59,14.2,20.12,49.08,7.77,47.92,35-53-.35-75.07,0-75.07,0,.07-6.25,1.11-21.08,2.34-26.89l2.76.52Z" transform="translate(-754.06 -360)"/><path class="cls-3" d="M1336.47,1078.3s8.61,128.94,5.11,157.6-15.88,65.42-14.48,160.24c-17.29,4.44-42.33,0-42.33,0s-3.72-107.21,14.56-155.1c-7.43-46.52-31.28-153.06-31.28-153.06Z" transform="translate(-754.06 -360)"/><path class="cls-6" d="M1303.75,1081.82s-17.39,144.76-25.9,172.22-25.11,50.67-40.52,144.08c-17.77.91-34.31,0-34.31,0s2.4-118.49,30.07-145.43c.93-47.17-4.48-169.94-4.48-169.94Z" transform="translate(-754.06 -360)"/><g id="v"><path id="h-5" class="cls-7" d="M1223.59,917.53s30.2-10.85,40.27-5.87c31.29,15.47,38.47,0,38.47,0,10,.88,40.18,5.87,40.18,5.87,0,34.61,2.25,69.34,1.64,95.53-.44,22.8,3.8,84.87,3.8,84.87s-33.3,9-64.79,9.19c-31.5-.21-63.55-8.83-63.55-8.83s1.68-62.86,3.08-86.22C1222.23,985.88,1223.59,952.05,1223.59,917.53Z" transform="translate(-754.06 -360)"/></g><g id="c"><path id="c-2" data-name="c" class="cls-8" d="M1396.19,969c-12.47-30.54-49.45-50-53.68-51.44l-8.58,39.2a224.19,224.19,0,0,1,30.67,22.46c-2.19,10.92-1.82,21.62-8,35.42,0,0,5.35-7.57,11.94-3.09,6.41,4.36,18.2-4.53,18.2-4.53S1405.71,992.29,1396.19,969Z" transform="translate(-754.06 -360)"/></g><path d="M1632.1,1384.63c-12.58,17.23-44.06,9.61-43,32.92,47-.3,67.45.13,67.45.13-.06-5.35-1.34-25.39-2.43-30.36Z" transform="translate(-754.06 -360)"/><path d="M1713.37,1384.63c12.58,17.23,44.06,9.61,43,32.92-47-.3-67.45.13-67.45.13.06-5.35,1.35-25.39,2.43-30.36Z" transform="translate(-754.06 -360)"/><path class="cls-3" d="M1604.13,914.52s-38.19,21.27-62.54,41l-13.17,41c25.42-3.1,88.35-31.38,88.35-31.38Z" transform="translate(-754.06 -360)"/><path class="cls-4" d="M1520.86,870.27c1.18,6.26,1.12,12.9,8.39,16.86,0,0-2.84,20.17-3.43,36.87,0,0,20.06-19.5,20.06-19.52-.48-6.79-.24-19.54,1.38-26.64.42-1.84.93-3.67,1.37-5.52,1.18-4.47,2.87-9,.65-14.73-8.62-22.13-4.51-28.79-5.86-30-2.24-1.26-8.09,2.51-5.88,13.2,2.14,10.34,1,15.22,1,15.22s-7.74-2.23-10.78.35C1526.36,857.58,1519.48,863,1520.86,870.27Z" transform="translate(-754.06 -360)"/><path class="cls-3" d="M1523.52,890.8l25.3,3.88,12.31,73.18-32.71,28.59C1521.34,982.12,1515.25,922.68,1523.52,890.8Z" transform="translate(-754.06 -360)"/><path class="cls-3" d="M1720.43,1072.33a405.3,405.3,0,0,1-98.15.22l-7.51,166.2s4.2,110,9.85,148.53l35.56-.08c-2.32-44.87,4.43-148.57,4.43-148.57l7.08-94.8,7.13,94.77s7,103.67,4.87,148.54l37.06-.08c5.49-38.61,7.83-148.57,7.83-148.57Z" transform="translate(-754.06 -360)"/><path class="cls-3" d="M1732.15,915.11s21.78,45.13,35,73.9l-12.08,39.9c-21.38-14.44-56.24-74.39-56.24-74.39Z" transform="translate(-754.06 -360)"/><polygon class="cls-9" points="935 544.29 890.75 546.31 886.28 590.77 891.11 717.64 937.78 717.04 949.98 575.02 935 544.29"/><path class="cls-6" d="M1640.51,835.82c6.16-7.27,11-.22,19.81-9.22s15.84-15.49,23.36-6,11.4,10.84,16.87,10.29,5.45,22.58,5.45,22.58,21.54-5.53,18.65-21.68c-3.21-17.89-11.13-12.77-15.57-27.27s-21.56-22.68-29.39-19.2c-8.26,3.67-12.6,7.71-24.63,4.71s-22.4.63-22.38,16.65-18.32,11.24-12.45,31.24c2.28,7.76,8.66,14.9,11.63,14.27C1635.83,851.37,1636.53,840.51,1640.51,835.82Z" transform="translate(-754.06 -360)"/><rect class="cls-10" x="893.6" y="711.78" width="43.46" height="13.31"/><polygon class="cls-5" points="897.99 555.48 913.39 567.99 929.02 555.48 931.09 524.92 895.92 524.92 897.99 555.48"/><path class="cls-6" d="M1604,914.6l.8,198.69c15.07,12.7,44.61,16.17,44.61,16.17l-5.37-220.19Z" transform="translate(-754.06 -360)"/><path class="cls-6" d="M1732.2,914.6l-.8,198.69c-15.07,12.7-44.6,16.17-44.6,16.17l5.37-220.19Z" transform="translate(-754.06 -360)"/><polygon class="cls-10" points="868.37 575.41 893.8 688.09 889.94 547.28 868.37 575.41"/><polygon class="cls-10" points="961.08 567.61 935 689.38 938.11 549.27 961.08 567.61"/><path class="cls-4" d="M1671,805.21c-45.39-1.1-35,61.67-31.72,71.53,1.81,5.38,13.32,26,31.84,26.3,18.52-.29,29.78-20.92,31.59-26.3C1706,866.88,1718,805.94,1671,805.21Z" transform="translate(-754.06 -360)"/><path class="cls-6" d="M1665.57,846.75a2.14,2.14,0,0,0,1-1.23,2.18,2.18,0,0,0-1.34-2.72,17.79,17.79,0,0,0-15.34,2.59,2.2,2.2,0,0,0-.48,3,2.07,2.07,0,0,0,2.93.49,13.62,13.62,0,0,1,11.58-2A2.05,2.05,0,0,0,1665.57,846.75Z" transform="translate(-754.06 -360)"/><path class="cls-6" d="M1685.29,846.14a2.1,2.1,0,0,1-1-1.23,2.15,2.15,0,0,1,1.33-2.71,17.71,17.71,0,0,1,15.34,2.59,2.18,2.18,0,0,1,.48,3,2,2,0,0,1-2.92.49,13.66,13.66,0,0,0-11.59-2A2,2,0,0,1,1685.29,846.14Z" transform="translate(-754.06 -360)"/><path d="M1694.49,854a3.71,3.71,0,1,1-3.71-3.8A3.76,3.76,0,0,1,1694.49,854Z" transform="translate(-754.06 -360)"/><path d="M1662.74,854a3.7,3.7,0,1,1-3.7-3.8A3.75,3.75,0,0,1,1662.74,854Z" transform="translate(-754.06 -360)"/><path class="cls-5" d="M1677.89,857.66c3,4.85,6.74,10.77,6.74,10.77s-1.71,5.14-8.3,5.23c2.78-1.19,5.53-3.13,4.39-6.94S1677.89,857.66,1677.89,857.66Z" transform="translate(-754.06 -360)"/><polygon class="cls-7" points="917.43 579.67 925.19 686.7 913.55 700.8 901.91 686.7 909.85 579.95 917.43 579.67"/><polygon class="cls-7" points="921.69 568.17 913.95 566.09 906.03 568.53 909.84 580.15 917.46 580.01 921.69 568.17"/><path class="cls-2" d="M1667.61,926.11a38.88,38.88,0,0,1-14.23,12.07l-15.26-23.78,6.69-8.09Z" transform="translate(-754.06 -360)"/><path class="cls-2" d="M1667.61,926.11s7.42,8.89,14.63,11.55L1696.06,912l-6.51-7.7Z" transform="translate(-754.06 -360)"/><path class="cls-3" d="M1823.86,980.92l-6-23.82-59.06,26.52-3.68,45.29C1770.66,1027.37,1802.07,1005.18,1823.86,980.92Z" transform="translate(-754.06 -360)"/><path class="cls-2" d="M1686.7,882.08c.61-1,.06-2.51-.88-2.4a65.72,65.72,0,0,1-10.11.49,66.9,66.9,0,0,1-10-1.37c-.93-.2-1.6,1.24-1.08,2.31,1.59,3.3,5,8.36,10.7,8.61S1684.84,885.23,1686.7,882.08Z" transform="translate(-754.06 -360)"/><path class="cls-6" d="M1635.11,847.12c5.13,1.76,6.58-35.91,26.52-22.26,14,9.61,39.91,12,34.68-1a89.88,89.88,0,0,1,8.94,8.23l-7.39-25.13s-38-12.28-51.57.16S1635.11,847.12,1635.11,847.12Z" transform="translate(-754.06 -360)"/><path class="cls-4" d="M1644.58,851.38c3,6.08,1.25,13.21-3.93,15.92s-11.84,0-14.86-6.09-1.26-13.21,3.93-15.92S1641.56,845.3,1644.58,851.38Z" transform="translate(-754.06 -360)"/><path class="cls-5" d="M1636.72,864.13a1.44,1.44,0,0,1-.4-.06,1.41,1.41,0,0,1-.9-1.75c1.1-3.72,1-6.54-.29-8.13-1.73-2.16-5.24-1.8-5.28-1.8a1.4,1.4,0,0,1-.3-2.78c.2,0,5-.55,7.67,2.77,1.94,2.39,2.21,6,.81,10.75A1.37,1.37,0,0,1,1636.72,864.13Z" transform="translate(-754.06 -360)"/><polygon class="cls-7" points="1110.94 582.29 1107.78 595.28 1103.34 613.48 1099.97 627.3 1073.39 624.11 1073.22 609.87 1073 591.1 1072.83 577.72 1110.94 582.29"/><polygon class="cls-11" points="1069.02 577.26 1114.76 582.75 1114.56 577.74 1070.33 572.43 1069.02 577.26"/><polygon class="cls-11" points="1111.07 577.32 1073.82 572.85 1075.12 568.16 1110.86 572.45 1111.07 577.32"/><polygon class="cls-11" points="1099.97 627.3 1098.79 632.15 1073.46 629.11 1073.39 624.12 1099.97 627.3"/><polygon class="cls-11" points="1107.78 595.28 1103.34 613.48 1073.22 609.87 1073 591.1 1107.78 595.28"/><path id="c-3" data-name="c" class="cls-4" d="M1852.9,971a3.51,3.51,0,0,1,.91-.45,1.34,1.34,0,0,1-.11-.14c-2-2.89-2-6.45,0-8a3.22,3.22,0,0,1,1.09-.52c-.62-2.18-.22-4.3,1.22-5.37a3.39,3.39,0,0,1,2-.65,4.87,4.87,0,0,1,1.31-5.63c2-1.49,5.07-.7,6.81,1.77s1.5,5.69-.52,7.18a3.92,3.92,0,0,1-1.7.71c1.49,2.71,1.33,5.75-.5,7.1a3.13,3.13,0,0,1-1.09.52c.62,2.18.22,4.3-1.23,5.37a3.37,3.37,0,0,1-1.81.65,4.16,4.16,0,0,1-1,5c-1.71,1.27-4.29.6-5.75-1.49S1851.19,972.22,1852.9,971Z" transform="translate(-754.06 -360)"/><path class="cls-4" d="M1827.5,961.92c2-.8,4.45-3.3,5.76-7.92s11.86-7.62,8.06-10.11-15.42-.4-19.84,10a18.3,18.3,0,0,1-3.67,3.22l5.4,21.43,4.19-.95Z" transform="translate(-754.06 -360)"/><g id="c-4" data-name="c"><g id="c-5" data-name="c"><g id="c-6" data-name="c"><path id="c-7" data-name="c" class="cls-9" d="M1389.24,1046.13a3.78,3.78,0,0,0,.65.14h.71a3.43,3.43,0,0,0,2.87-2.42l33.23-110a3.85,3.85,0,0,0,.13-.66,3.23,3.23,0,0,0,0-.44,2.25,2.25,0,0,0,0-.26,1.7,1.7,0,0,0,0-.22,3.42,3.42,0,0,0-2.31-2.75,4.13,4.13,0,0,0-.63-.14,3.46,3.46,0,0,0-.72,0h-83.65L1306,1046.27h83.35Z" transform="translate(-754.06 -360)"/><path id="c-8" data-name="c" class="cls-12" d="M1340.24,929.52a3.36,3.36,0,0,0-4.23,2.28l-33,109.72-.07.26a3.48,3.48,0,0,0,2.2,4.32h0a3.36,3.36,0,0,0,4.22-2.28l33.11-110A3.48,3.48,0,0,0,1340.24,929.52Z" transform="translate(-754.06 -360)"/></g></g><path id="c-9" data-name="c" class="cls-4" d="M1403.43,999.3a3.64,3.64,0,0,1,1-.45l-.12-.15c-2.08-3.23-1.94-7.08.32-8.61a3.48,3.48,0,0,1,1.2-.52c-.59-2.39-.06-4.66,1.54-5.76a3.73,3.73,0,0,1,2.16-.62,5.27,5.27,0,0,1,1.65-6c2.25-1.53,5.52-.54,7.3,2.21s1.39,6.22-.87,7.75a4,4,0,0,1-1.86.69c1.5,3,1.2,6.29-.84,7.67a3.65,3.65,0,0,1-1.2.52c.58,2.39.06,4.67-1.55,5.76a3.68,3.68,0,0,1-2,.62,4.51,4.51,0,0,1-1.31,5.34c-1.91,1.29-4.66.45-6.16-1.87S1401.53,1000.6,1403.43,999.3Z" transform="translate(-754.06 -360)"/><path class="cls-4" d="M1300.59,992.35l7.63-4.54a14.56,14.56,0,0,1,14.36-11.37c-1.41,4.66-3.43,11.37-3.43,11.37s6,4.81,20.33-3.41c14-3.23,8,7.23,12.63,8,6.84,1.11-5,14.9-18.93,17-18.06,2.73-20.2-1.06-20.2-1.06l-10.21,3.66Z" transform="translate(-754.06 -360)"/><path id="c-10" data-name="c" class="cls-8" d="M1230,1004.21c25.49-1.82,69-14.75,69-14.75,7,11,5,25.51,5,25.51-39.58,35.63-99.15,47.15-117.42,38.57-16.69-7.83-4.91-112.12,37-136h0C1238,942.49,1230,1004.21,1230,1004.21Z" transform="translate(-754.06 -360)"/></g><g id="с"><path id="с-2" data-name="с" class="cls-9" d="M1747.76,1204.13H1216c-12.49,0-22.62-7-22.62-15.64h0c0-8.63,10.13-15.63,22.62-15.63h531.77c12.49,0,22.63,7,22.63,15.63h0C1770.39,1197.13,1760.25,1204.13,1747.76,1204.13Z" transform="translate(-754.06 -360)"/><path class="cls-9" d="M1415.29,1424.44h0c-5.69,0-9.12-6.49-6-11.39l140.4-220.92,12,8.06L1421.3,1421.1A7.13,7.13,0,0,1,1415.29,1424.44Z" transform="translate(-754.06 -360)"/><path class="cls-9" d="M1548.46,1424.44h0c5.7,0,9.12-6.49,6-11.39l-140.41-220.92-12,8.06,140.41,220.91A7.13,7.13,0,0,0,1548.46,1424.44Z" transform="translate(-754.06 -360)"/></g><g id="с-3" data-name="с"><path id="с-4" data-name="с" class="cls-12" d="M1188.1,1420.94h0a7,7,0,0,0,6.87-7.06v-125h-13.75v125A7,7,0,0,0,1188.1,1420.94Z" transform="translate(-754.06 -360)"/><path id="с-5" data-name="с" class="cls-12" d="M1139.86,1420.94h0a7,7,0,0,0,6.88-7.06v-125H1133v125A7,7,0,0,0,1139.86,1420.94Z" transform="translate(-754.06 -360)"/><path id="с-6" data-name="с" class="cls-12" d="M1076.57,1420.94h0a7,7,0,0,0,6.88-7.06v-125H1069.7v125A7,7,0,0,0,1076.57,1420.94Z" transform="translate(-754.06 -360)"/><path id="с-7" data-name="с" class="cls-12" d="M1028.34,1420.94h0a7,7,0,0,0,6.87-7.06v-125h-13.75v125A7,7,0,0,0,1028.34,1420.94Z" transform="translate(-754.06 -360)"/><path id="с-8" data-name="с" class="cls-9" d="M1104.39,1103.26v148.8a3,3,0,0,0,3,3.07h89.86a16.64,16.64,0,0,1,16.42,16.85h0a16.64,16.64,0,0,1-16.42,16.86H1088a16.64,16.64,0,0,1-16.42-16.86V1103.26a16.64,16.64,0,0,1,16.42-16.85h0A16.63,16.63,0,0,1,1104.39,1103.26Z" transform="translate(-754.06 -360)"/><rect id="с-9" data-name="с" class="cls-9" x="1016.93" y="1086.41" width="71.05" height="171.46" transform="translate(1350.85 1984.27) rotate(180)"/><path id="с-10" data-name="с" class="cls-12" d="M1033.35,1103.26v148.8a3,3,0,0,0,3,3.07h89.86a16.64,16.64,0,0,1,16.42,16.85h0a16.64,16.64,0,0,1-16.42,16.86H1016.93a16.64,16.64,0,0,1-16.41-16.86V1103.26a16.63,16.63,0,0,1,16.41-16.85h0A16.64,16.64,0,0,1,1033.35,1103.26Z" transform="translate(-754.06 -360)"/></g><path class="cls-4" d="M1175.81,1137.17c-6.5,4.44-4.7,28.65-2.25,29.88,33.81,4.25,90.93-24.52,90.93-24.52l2.23-12.86S1219,1137.87,1175.81,1137.17Z" transform="translate(-754.06 -360)"/><path class="cls-4" d="M1101.51,1095.19c12.09,19.84,65,71.16,73.21,71.92l7-29.09s-47.49-61.82-55.86-71.69C1111.4,1049.21,1081.72,1062.82,1101.51,1095.19Z" transform="translate(-754.06 -360)"/><path class="cls-6" d="M1130.43,989.14c1.45-20.32-4.27-38.27-20-47.42-16-9.26-36-.17-36-.17h0s-17-6.2-32.33,11.18-3.75,32.68-10,45.36c-3.73,7.51-22.66,9.06-17.77,33.51,1.41,7.06,9.67,11.8,16.67,12.28,12.29.83,23.74-4.05,28.73.83,16.42,16.08,52.81,10.26,57.91-4.45,1.58-4.56,34.31,4.27,31-26.8C1146.92,997.72,1129.13,1007.3,1130.43,989.14Z" transform="translate(-754.06 -360)"/><polygon class="cls-4" points="346.37 694.83 320.38 689.9 310.63 703.21 331.35 746.82 361.81 720.26 346.37 694.83"/><path class="cls-13" d="M1134.12,1160c-.44-8.3,12.62-42.37,5.74-59.52-5-13.79-13.37-37-23.61-40.81-4.83-1.83-9.8-3.1-15.82-4.81,0,0,3.4,17.39-3.68,18-13.63,1.12-22.31-22.89-22.31-22.89-7.35-.72-41,10.65-41,13.49.08,22.25,17.69,54.72,23.45,78.77,2.26,26-6.57,57.08-6.6,60,0,0,54.21,15.64,86.34-2.52C1137.27,1197.15,1134.74,1171.41,1134.12,1160Z" transform="translate(-754.06 -360)"/><path class="cls-13" d="M1058.42,1175.5s-12,31-14.89,50.51,13.55,32,13.55,32h137s14.67-24.42,10.44-41.28-13.93-19.54-13.93-19.54Z" transform="translate(-754.06 -360)"/><path class="cls-5" d="M1195.88,1196.37c-17.49-2.53-68.24,17.71-89.88,61.68h60.54Z" transform="translate(-754.06 -360)"/><path class="cls-5" d="M1176.7,1212.55a50.32,50.32,0,0,0,6.12-8.93,14.89,14.89,0,0,1,24.35-2.93c25.24,28.57,79,93.71,91,101.82,3.39,2.29,23.17,14,42,11.67,0,0,9.28,3.63,3.1,11.19-3.19,3.9-51,7.92-51,7.92l-3.72-14.4c-27.81-21.14-62.44-19.62-91.8-58.26C1180.64,1239.35,1176.7,1212.55,1176.7,1212.55Z" transform="translate(-754.06 -360)"/><path class="cls-7" d="M1302,1341.6l19.23,12.81,2.64-3.23-15.59-14.93c8.85-7.18,29.37-1.19,29.37-1.19,6.72-4.46,19.83-18.92,21.18-26.66-4.31-5.51-18.64,5.82-18.64,5.82.53,2.45-4,11-7.6,12.4-15.66,3.47-31.26-1.1-44-7.73C1288.6,1318.89,1278,1335.44,1302,1341.6Z" transform="translate(-754.06 -360)"/><path class="cls-4" d="M1176.42,1216.43a9.23,9.23,0,0,0-6.62,7.67c-1.37,10-8.44,30.17,1.13,51.32,23.49,51.92,37.36,86.14,39.82,99.54-6.14,11.79,18.33,44,18.69,46.13l17.61-5.66S1237,1400,1233.31,1394c-8.66-14.39-10.08-32-11.49-45.73-6-58.43,4.33-95.33-36.85-129.6A9.45,9.45,0,0,0,1176.42,1216.43Z" transform="translate(-754.06 -360)"/><path class="cls-7" d="M1202,1399.67l1.73,23.47,4.11.19,2.11-21.78c10.93,2.88,18.73,23.26,18.73,23.26,7.53,2.79,26.67,4.72,33.49,1.12,1.65-6.85-15.81-11.68-15.81-11.68-1.58,1.92-10.91,3.37-14.22,1.31-12.18-10.68-18.79-26.19-21.37-40.6C1210.75,1375,1192.17,1376.31,1202,1399.67Z" transform="translate(-754.06 -360)"/><path class="cls-4" d="M1093.86,1033l-21.1-3.25,1.68,20.12s4,9.11,8.72,9.73l17.27-4.81Z" transform="translate(-754.06 -360)"/><path class="cls-4" d="M1053.23,1004c5.45,23.36,24.35,38.74,42.22,34.34s28-26.89,22.5-50.25-24.35-38.74-42.23-34.35S1047.78,980.58,1053.23,1004Z" transform="translate(-754.06 -360)"/><path d="M1109.57,994.17a3.16,3.16,0,0,0,4.29,1.48,3.32,3.32,0,0,0,1.43-4.4,3.16,3.16,0,0,0-4.28-1.48A3.33,3.33,0,0,0,1109.57,994.17Z" transform="translate(-754.06 -360)"/><path d="M1084.47,1000.53a3.42,3.42,0,0,0,4.64,1.6,3.6,3.6,0,0,0,1.55-4.77,3.41,3.41,0,0,0-4.63-1.59A3.59,3.59,0,0,0,1084.47,1000.53Z" transform="translate(-754.06 -360)"/><path class="cls-6" d="M1080.65,997.59a1.22,1.22,0,0,0,.55-.59c1.73-3.84,6.42-4.58,6.47-4.59a1.23,1.23,0,0,0,1-1.4,1.21,1.21,0,0,0-1.35-1c-.25,0-6,.93-8.31,6a1.25,1.25,0,0,0,.58,1.64A1.21,1.21,0,0,0,1080.65,997.59Z" transform="translate(-754.06 -360)"/><path class="cls-6" d="M1116.54,989.42a1.08,1.08,0,0,0,.32-.24,1.26,1.26,0,0,0,0-1.75,8.27,8.27,0,0,0-8.38-2.11,1.25,1.25,0,0,0-.75,1.57,1.21,1.21,0,0,0,1.53.77,5.9,5.9,0,0,1,5.91,1.53A1.18,1.18,0,0,0,1116.54,989.42Z" transform="translate(-754.06 -360)"/><path class="cls-5" d="M1107.52,1001.31c1.75,1.85,3.29,3.76,5,4.84a1.32,1.32,0,0,1,.42,1.74c-1.35,2.46-5.3,4.48-7.72,5.54a.35.35,0,0,1-.36-.58,16.67,16.67,0,0,0,3.94-4.71,1.57,1.57,0,0,0,0-1.4c-.5-1-1.5-3.09-2.17-4.81A.57.57,0,0,1,1107.52,1001.31Z" transform="translate(-754.06 -360)"/><path class="cls-4" d="M1061.83,1004.1c4.34,3.46,5.62,9.24,2.86,12.88s-8.53,3.8-12.87.33-5.62-9.24-2.86-12.89S1057.49,1000.63,1061.83,1004.1Z" transform="translate(-754.06 -360)"/><path class="cls-5" d="M1059.36,1015.92a1.11,1.11,0,0,0,.42-.36c1.67-2.28,1.83-4.84.42-6.84a5.71,5.71,0,0,0-6.35-2.24,1.25,1.25,0,0,0-.77,1.56,1.19,1.19,0,0,0,1.52.78,3.4,3.4,0,0,1,3.65,1.34c.78,1.11.64,2.51-.39,3.92a1.26,1.26,0,0,0,.24,1.73A1.16,1.16,0,0,0,1059.36,1015.92Z" transform="translate(-754.06 -360)"/><path class="cls-2" d="M1087.76,1019.94a1,1,0,0,1,.88-1.57,66.07,66.07,0,0,0,18.06,0,1,1,0,0,1,.88,1.57,11.79,11.79,0,0,1-19.82,0Z" transform="translate(-754.06 -360)"/><path class="cls-6" d="M1052.79,1001.88c21.33-2.93,51.18-25.25,53.63-36.7-4.13-13.75-26.11-20.67-38.53-14.29S1043.75,984.57,1052.79,1001.88Z" transform="translate(-754.06 -360)"/><path class="cls-2" d="M1252.35,1167.5h0a5.59,5.59,0,0,1-3.47-7l32.93-103.56a5.38,5.38,0,0,1,6.82-3.56h0a5.59,5.59,0,0,1,3.46,7L1259.16,1164A5.37,5.37,0,0,1,1252.35,1167.5Z" transform="translate(-754.06 -360)"/><path class="cls-4" d="M1269.83,1130.39l6.71-21.1s5.82,12.14,0,23.66-11.35,12-11.35,12Z" transform="translate(-754.06 -360)"/><path class="cls-4" d="M1260.25,1124.74c-1.69-4.1-5.69-14.34-1.69-14.3s4.64,5,4.64,5Z" transform="translate(-754.06 -360)"/><path class="cls-4" d="M930.41,1063.07c9.05-9.38,3.11-19,3.11-19,5-1.09,31.18,39.68,42.49,65.59,19.71-20.4,54.46-48,63.85-49.56,0,0,12.67-3.5,17.23,12.23,4.06,14-11.79,24-11.79,24s-67.81,49.16-77.84,44.79C951.85,1134.31,937.73,1075.81,930.41,1063.07Z" transform="translate(-754.06 -360)"/><path class="cls-4" d="M916.25,1061.91c5.53.35,12.37-2.46,14.51,2.63l10.92-5.46.66-6.77c-9.39-15.44-32.26-19.82-34.53-20-5.88-.53-8.61-1.15-9.07-.35s-1.9,6.19,6.63,7.24c10.72,1.32,3.61,10.12-18.13,1.75-5.44-2.1-15.69.62-12,4.71C879.34,1050.14,891.07,1060.33,916.25,1061.91Z" transform="translate(-754.06 -360)"/><path class="cls-13" d="M1507.91,747.53a45.78,45.78,0,0,1-2.46,14.78c-8,23.64-34.78,41-66.58,41s-58.55-17.36-66.57-41a45.77,45.77,0,0,1-2.45-14.78Z" transform="translate(-754.06 -360)"/><path class="cls-14" d="M1507.91,747.53a45.78,45.78,0,0,1-2.46,14.78H1372.3a45.77,45.77,0,0,1-2.45-14.78Z" transform="translate(-754.06 -360)"/><path class="cls-15" d="M1583.44,508.43c0-81.91-64.61-148.31-144.36-148.43-78.65-.11-143.33,65-144.74,145.7a150.37,150.37,0,0,0,30.28,93.66A189,189,0,0,1,1363,713.24V714h151.79v-.73a189.58,189.58,0,0,1,38.46-114A150.24,150.24,0,0,0,1583.44,508.43Z" transform="translate(-754.06 -360)"/><path class="cls-2" d="M1460.75,697.17a3.68,3.68,0,0,1-1.22-.21,3.82,3.82,0,0,1-2.27-4.84c.17-.5,17.21-50.93,29.6-102.28,22-91,10.66-105.81,4.78-107.94-17.28-6.28-31,3-39.53,11.91a74.7,74.7,0,0,0-7.15,8.78,146,146,0,0,1,9.81,21.45c7.65,21,9.69,40.61,5.44,52.46-3.28,9.15-10.24,13.78-19.61,13.06-8.84-.68-15.31-5.94-18.71-15.2-3.89-10.62-3.39-26.23,1.38-42.84a116.06,116.06,0,0,1,13-29.26c-5.1-8.28-11-15.41-17.4-20.2-9.52-7.12-18.45-7.43-26.56-.92-16.74,13.43-17.38,53.85-1.85,116.86,12,48.59,29.54,93.51,29.71,94a3.82,3.82,0,0,1-2,4.94,3.65,3.65,0,0,1-4.81-2.1c-.18-.45-17.91-45.78-30-94.86-16.55-67.14-15.06-109.12,4.45-124.77,10.71-8.6,23.31-8.33,35.46.77,6.09,4.56,12.11,11.39,17.57,19.75a77.43,77.43,0,0,1,6.06-7.18c14.14-14.81,30.93-19.7,47.28-13.76,10.17,3.7,14.35,17.77,12.76,43-1.17,18.61-5.5,43.5-12.85,74-12.47,51.69-29.61,102.4-29.78,102.91A3.72,3.72,0,0,1,1460.75,697.17Zm-20.29-187.48a109.23,109.23,0,0,0-10.1,24c-4.26,14.83-4.84,29.05-1.55,38,2.38,6.47,6.41,9.84,12.34,10.3,6.12.47,10-2.1,12.12-8.11C1458.17,560.21,1452.22,532.29,1440.46,509.69Z" transform="translate(-754.06 -360)"/><path class="cls-13" d="M1502.31,752.38H1375.44c-14.85,0-26.9-12.36-26.9-27.62V722.9c0-15.26,12-27.62,26.9-27.62h126.87c14.85,0,26.9,12.36,26.9,27.62v1.86C1529.21,740,1517.16,752.38,1502.31,752.38Z" transform="translate(-754.06 -360)"/><path class="cls-15" d="M1684.46,514.53H1637.2A12.35,12.35,0,0,1,1625,502h0a12.35,12.35,0,0,1,12.18-12.51h47.26A12.35,12.35,0,0,1,1696.65,502h0A12.35,12.35,0,0,1,1684.46,514.53Z" transform="translate(-754.06 -360)"/><path class="cls-15" d="M1240.55,514.53h-47.26A12.35,12.35,0,0,1,1181.1,502h0a12.35,12.35,0,0,1,12.19-12.51h47.26A12.35,12.35,0,0,1,1252.73,502h0A12.35,12.35,0,0,1,1240.55,514.53Z" transform="translate(-754.06 -360)"/><path class="cls-15" d="M1270.59,411.85,1233,382.46a12.72,12.72,0,0,1-2.32-17.53h0a12,12,0,0,1,17.07-2.38l37.61,29.39a12.73,12.73,0,0,1,2.32,17.53h0A12,12,0,0,1,1270.59,411.85Z" transform="translate(-754.06 -360)"/><path class="cls-15" d="M1604.75,411.85l37.61-29.39a12.72,12.72,0,0,0,2.32-17.53h0a12,12,0,0,0-17.07-2.38L1590,391.94a12.72,12.72,0,0,0-2.32,17.53h0A12,12,0,0,0,1604.75,411.85Z" transform="translate(-754.06 -360)"/><path class="cls-15" d="M1270.59,607.7,1233,637.09a12.72,12.72,0,0,0-2.32,17.53h0a12,12,0,0,0,17.07,2.38l37.61-29.39a12.73,12.73,0,0,0,2.32-17.53h0A12,12,0,0,0,1270.59,607.7Z" transform="translate(-754.06 -360)"/><path class="cls-15" d="M1604.75,607.7l37.61,29.39a12.72,12.72,0,0,1,2.32,17.53h0a12,12,0,0,1-17.07,2.38L1590,627.61a12.72,12.72,0,0,1-2.32-17.53h0A12,12,0,0,1,1604.75,607.7Z" transform="translate(-754.06 -360)"/><path id="Vector_25" data-name="Vector 25" class="cls-13" d="M1470.23,1120.26s-10.87-21-15.22-43.39c-3.78-19.08-3.6-41.87-3.14-54a2.71,2.71,0,0,1,5.05-1.35c6.85,11.49,19.22,34.56,22,55.42q3,21.58,3.85,43.39Z" transform="translate(-754.06 -360)"/><path id="Vector_26" data-name="Vector 26" class="cls-13" d="M1481.6,1120.26s7.24-25.74,15.21-42.91c5.8-12.48,19-27.43,25.76-34.67a1.86,1.86,0,0,1,3.17,1.68c-1.74,9.52-5.76,28.28-12.32,41.1-9.14,17.81-24.35,34.8-24.35,34.8Z" transform="translate(-754.06 -360)"/><path id="Vector_27" data-name="Vector 27" class="cls-14" d="M1444.33,1097.43a2.58,2.58,0,0,1,3.06-3.66,43.3,43.3,0,0,1,14.92,8.87,32.08,32.08,0,0,1,9.61,16.19l-2.79,1S1454,1117,1444.33,1097.43Z" transform="translate(-754.06 -360)"/><path id="Vector_28" data-name="Vector 28" class="cls-14" d="M1501.05,1037.23a2.76,2.76,0,0,0-5-1.46c-5.66,8.09-15.16,24-18.26,43.55-3.9,24.37.63,41,.63,41h3.21s11.79-23,16.39-38.5C1502.34,1067.1,1501.78,1047.61,1501.05,1037.23Z" transform="translate(-754.06 -360)"/><path id="Vector_29" data-name="Vector 29" class="cls-14" d="M1489.07,1120.26s6.79-23.2,30-32a1.69,1.69,0,0,1,2.11,2.25c-3.07,7.67-11.79,26-26.52,29.78Z" transform="translate(-754.06 -360)"/><path id="Vector_23" data-name="Vector 23" class="cls-12" d="M1509.63,1116.33h-53.74l6.89,56.54h40Z" transform="translate(-754.06 -360)"/><path class="cls-7" d="M1451.84,1160.54v8.12H1454a1.92,1.92,0,0,1,1.89,1.94v.33a1.92,1.92,0,0,1-1.89,1.94h-91.7a2.23,2.23,0,0,1-2.2-2.26v-11.69a2.23,2.23,0,0,1,2.2-2.26H1454a1.92,1.92,0,0,1,1.89,1.94h0a1.92,1.92,0,0,1-1.89,1.94Z" transform="translate(-754.06 -360)"/><path class="cls-2" d="M619.16,800.54h78.89a0,0,0,0,1,0,0v8.11a0,0,0,0,1,0,0H619.16a2.91,2.91,0,0,1-2.91-2.91v-2.29a2.91,2.91,0,0,1,2.91-2.91Z"/><path class="cls-13" d="M1352,1143v9h-2.15a2,2,0,0,0-1.89,2.15v.36a2,2,0,0,0,1.89,2.15h91.7a2.37,2.37,0,0,0,2.2-2.5v-12.93a2.37,2.37,0,0,0-2.2-2.5h-91.7a2,2,0,0,0-1.89,2.15h0a2,2,0,0,0,1.89,2.14Z" transform="translate(-754.06 -360)"/><path class="cls-2" d="M1354.78,1143h78.74a0,0,0,0,1,0,0v9a0,0,0,0,1,0,0h-78.74a3.06,3.06,0,0,1-3.06-3.06v-2.85A3.06,3.06,0,0,1,1354.78,1143Z" transform="translate(2031.18 1935.03) rotate(180)"/><path class="cls-7" d="M1440.52,1130.41h-79.9a5.27,5.27,0,0,1-5.2-5.34v-3.88a5.27,5.27,0,0,1,5.2-5.34h79.9a5.27,5.27,0,0,1,5.21,5.34v3.88A5.27,5.27,0,0,1,1440.52,1130.41Z" transform="translate(-754.06 -360)"/><rect class="cls-12" x="607.26" y="770.41" width="90.31" height="8.32" rx="4.16"/><path d="M1995.23,783c-30.1-8.73-94.39,19.21-76.89,131.61s100.37,93.87,100.37,93.87,36.13-11.66,39.37-83.07S2045.84,797.61,1995.23,783Z" transform="translate(-754.06 -360)"/><path class="cls-11" d="M1970.13,919.47s-6.07,64.09-57.83,97c-9.09-2.55-17.76-24.31-17.76-24.31L1922.78,922s10.13-15.17,28-14.91C1966.33,907.27,1970.13,919.47,1970.13,919.47Z" transform="translate(-754.06 -360)"/><path class="cls-4" d="M1969.08,885l22.44-3.45L1989.73,903s-11.36,21-22.14,17.4-5.52-12.91-5.52-12.91Z" transform="translate(-754.06 -360)"/><path class="cls-4" d="M2009.47,850.35c-3.65,25.26-22.27,43.36-41.59,40.42s-32-25.81-28.39-51.07,22.27-43.36,41.59-40.42S2013.11,825.09,2009.47,850.35Z" transform="translate(-754.06 -360)"/><path d="M1984.69,843.34a1.33,1.33,0,0,1-.69-.51c-2.5-3.69-7.54-3.59-7.59-3.59a1.31,1.31,0,0,1-.08-2.62c.26,0,6.46-.17,9.77,4.71a1.33,1.33,0,0,1-.32,1.83A1.23,1.23,0,0,1,1984.69,843.34Z" transform="translate(-754.06 -360)"/><path d="M1941.59,842.61a1.38,1.38,0,0,1-.36-.23,1.33,1.33,0,0,1-.15-1.85,8.85,8.85,0,0,1,8.69-3,1.33,1.33,0,0,1,.93,1.6,1.26,1.26,0,0,1-1.54.95,6.34,6.34,0,0,0-6.13,2.19A1.25,1.25,0,0,1,1941.59,842.61Z" transform="translate(-754.06 -360)"/><path class="cls-5" d="M1959.43,853.3c-1.61,2-3,4.09-4.59,5.34a1.36,1.36,0,0,0-.27,1.79c1.58,2.36,5.74,4,8.27,4.89a.35.35,0,0,0,.31-.62,16.78,16.78,0,0,1-4.38-4.4,1.56,1.56,0,0,1-.11-1.41c.41-1.07,1.24-3.26,1.77-5A.58.58,0,0,0,1959.43,853.3Z" transform="translate(-754.06 -360)"/><path class="cls-2" d="M1975.63,872.38a1,1,0,0,0-1-1.61,70.1,70.1,0,0,1-19.17,1.18,1,1,0,0,0-.84,1.72,12.54,12.54,0,0,0,21-1.29Z" transform="translate(-754.06 -360)"/><path d="M2017.33,848c-22.85-1.06-52.91-22.72-56.55-34.61,3.12-15,14.61-23.41,28.34-17.86S2025.33,828.84,2017.33,848Z" transform="translate(-754.06 -360)"/><path d="M1966,819.44s-13.61,14.19-27.38,17.43c4.82-16.55,8.26-29.1,16.53-33.17a53.91,53.91,0,0,1,17.39-4.77Z" transform="translate(-754.06 -360)"/><path class="cls-4" d="M2004.12,846.42c-4.28,4.09-5.11,10.33-1.85,13.93s9.38,3.2,13.66-.89,5.11-10.32,1.85-13.92S2008.41,842.34,2004.12,846.42Z" transform="translate(-754.06 -360)"/><path class="cls-5" d="M2007.82,858.71a1.15,1.15,0,0,1-.48-.34c-2-2.25-2.38-5-1.07-7.21a6.1,6.1,0,0,1,6.52-3,1.31,1.31,0,0,1,1,1.58,1.28,1.28,0,0,1-1.53,1,3.61,3.61,0,0,0-3.74,1.76c-.73,1.26-.45,2.72.77,4.11a1.34,1.34,0,0,1-.1,1.86A1.25,1.25,0,0,1,2007.82,858.71Z" transform="translate(-754.06 -360)"/><path d="M1982.23,847.2a3.93,3.93,0,1,1-3.93-4A4,4,0,0,1,1982.23,847.2Z" transform="translate(-754.06 -360)"/><path d="M1953.61,847.2a3.93,3.93,0,1,1-3.93-4A4,4,0,0,1,1953.61,847.2Z" transform="translate(-754.06 -360)"/><path class="cls-4" d="M1948.08,1369.2c1.5-15.39-6.23-132.47-6.23-132.47-21.86-102.93-13.28-176.61-13.28-176.61l37.58,2.71L1981,1121l-7,97.14s2.64,7.48,4,13.46c7.54,32.42,0,71.17-4.62,97-2.15,12-5.5,37.13-5.59,42.84l9.44,12.53s-34.17,38.83-39.42,39.07c-10.22.48-7.21-9.91-7.21-9.91C1944.62,1398.31,1947.65,1373.6,1948.08,1369.2Z" transform="translate(-754.06 -360)"/><path class="cls-7" d="M1977.79,1397.72l-1.88,24.94-4.37.21-2.21-23.17c-11.62,3-19.95,24.7-19.95,24.7-8,2.95-28.36,5-35.6,1.14-1.75-7.28,16.82-12.39,16.82-12.39,1.68,2,11.59,3.6,15.11,1.41,13-11.33,19.29-27.8,22-43.13C1967.76,1371.43,1988.24,1372.9,1977.79,1397.72Z" transform="translate(-754.06 -360)"/><path class="cls-4" d="M1960.79,1067.6l52.94-7.48c20.25,47,26.85,128.94,32.35,158.12,22.06,38,29.07,153.19,29.07,153.19l9.44,12.53s-34.17,38.83-39.42,39.07c-10.22.48-7.21-9.91-7.21-9.91,14-14.81,16.78-34.48,17.69-38.81C2057,1367.8,2012.8,1240,2012.8,1240l-4.72-12.12c-54-91.59-62.87-160.82-62.87-160.82Z" transform="translate(-754.06 -360)"/><path class="cls-7" d="M2085.17,1397.72l-1.88,24.94-4.36.21-2.21-23.17c-11.62,3-19.95,24.7-19.95,24.7-8,2.95-28.36,5-35.6,1.14-1.75-7.28,16.82-12.39,16.82-12.39,1.68,2,11.59,3.6,15.11,1.41,13-11.33,19.29-27.8,22.05-43.13C2075.15,1371.43,2095.63,1372.9,2085.17,1397.72Z" transform="translate(-754.06 -360)"/><path class="cls-16" d="M2059.21,1212.9c-5.29-18.16-3-148.16-49.66-183.51l-80.32,8.69c-18.56,30.85-11.75,111.11-5.5,177.16C1961.49,1229.08,1991.52,1234.63,2059.21,1212.9Z" transform="translate(-754.06 -360)"/><path class="cls-7" d="M1928.25,1017.73c0-18.06-15.24-45.11-7.93-63.34,5.32-14.66,15.78-47.75,27.17-50,4.62-.91,9.7,0,16.1-1.81,0,0-3.34,15.31,4.18,15.93,14.49,1.19,22.1-17.87,22.1-17.87,7.81-.77,35,7.58,35,10.6-.09,23.65-7,56.47-13.1,82-1.14,13,1.79,23.56,3.06,30.93,2.32,7.68,6.11,16.16,6.13,17.82,0,0-59.92,19.65-94.08.34C1926.91,1042.39,1928.25,1029.93,1928.25,1017.73Z" transform="translate(-754.06 -360)"/><path class="cls-2" d="M1967.77,918.53c-1.29,6.19,2.21,13.6,12.31,10.13,12.09-4.17,17.73-27.47,17.73-27.47l-7.58-4.22S1984.48,913.07,1967.77,918.53Z" transform="translate(-754.06 -360)"/><path class="cls-2" d="M1967.77,918.53c-1.49,3.19-10,11.36-14,6.49s2.06-21.18,2.06-21.18l8-2.34S1960,914.1,1967.77,918.53Z" transform="translate(-754.06 -360)"/><path class="cls-11" d="M2024.49,910.23s45.75,58,38.52,87.35c-20,15.08-30.23-2.45-30.23-2.45l-26.62-44.83s-11.11-15.62-2.69-31C2010.8,906,2024.49,910.23,2024.49,910.23Z" transform="translate(-754.06 -360)"/><path class="cls-2" d="M1962.64,1041.74h-20.25a3.16,3.16,0,0,1-3.12-3l-2.94-48a1.91,1.91,0,0,1,1.88-2.06h28.73a1.92,1.92,0,0,1,1.89,2.06l-3.06,48A3.18,3.18,0,0,1,1962.64,1041.74Z" transform="translate(-754.06 -360)"/><path class="cls-17" d="M1966.53,1001.67l-2.17,35.74a2.87,2.87,0,0,1-2.77,2.79h-18a2.86,2.86,0,0,1-2.77-2.8l-2-34.86a16.5,16.5,0,0,1,13.76.59C1957.3,1005.69,1963.88,1003,1966.53,1001.67Z" transform="translate(-754.06 -360)"/><path class="cls-4" d="M1980.29,1014.56s31.53-15.6,41.85-21.54c10.8-6.23,23.83-14.49,40.87,4.56-5.26,20.93-30.45,32.85-83.2,32A98.64,98.64,0,0,0,1980.29,1014.56Z" transform="translate(-754.06 -360)"/><path class="cls-4" d="M1980.29,1014.56c-6.36-2.93-7.38-14.63-12.26-12-.25,5.29-.46,7.46-.59,10.33-.16,3.77-23.44,1.35-30-.52-5.24,5.21-5.16,11.36-.67,19.12,3.68,6.38,16.68,14.38,43-1.9C1981.94,1020.7,1980.29,1014.56,1980.29,1014.56Z" transform="translate(-754.06 -360)"/><path class="cls-4" d="M1835.51,1032.79s49.24-38.44,60.88-40.61c5.17-1,10.77,11,15.91,24.31-16.94,15-41.62,26.58-75,31.26A99.74,99.74,0,0,0,1835.51,1032.79Z" transform="translate(-754.06 -360)"/><path class="cls-4" d="M1827.5,1058.31c4-4,6.36-10.4,12.26-10.94l2.73-10.33-4.44-5c-17.44-3.2-35.93,11.29-37.6,12.87-4.32,4.13-6.6,5.79-6.33,6.68s3.2,5.6,9.68-.2c8.13-7.27,9.72,4-10.89,15-5.16,2.74-10.06,12.36-4.63,12.28C1794.27,1078.52,1809.49,1076.42,1827.5,1058.31Z" transform="translate(-754.06 -360)"/><rect class="cls-17" x="1378.64" y="515.69" width="163.94" height="227.42" rx="76.17"/><path class="cls-12" d="M2296,925H2133.39a5.44,5.44,0,0,1-5.37-5.51h0a5.43,5.43,0,0,1,5.37-5.51H2296a5.43,5.43,0,0,1,5.37,5.51h0A5.44,5.44,0,0,1,2296,925Z" transform="translate(-754.06 -360)"/><path class="cls-12" d="M2296,1064.84H2133.39a5.44,5.44,0,0,1-5.37-5.52h0a5.44,5.44,0,0,1,5.37-5.51H2296a5.44,5.44,0,0,1,5.37,5.51h0A5.44,5.44,0,0,1,2296,1064.84Z" transform="translate(-754.06 -360)"/><rect class="cls-17" x="1438.49" y="741.46" width="44.25" height="8.43"/><rect class="cls-18" x="1380.97" y="749.89" width="161.46" height="311.15" rx="30.27"/><rect class="cls-12" x="1399.99" y="783.55" width="124.65" height="113.76" rx="16.99"/><path class="cls-18" d="M2269.86,1159.49v81.88a7.78,7.78,0,0,1-7.67,7.88h-91.63a7.78,7.78,0,0,1-7.67-7.88v-81.88a7.77,7.77,0,0,1,7.67-7.87h91.63A7.77,7.77,0,0,1,2269.86,1159.49Z" transform="translate(-754.06 -360)"/><path class="cls-6" d="M2201,1182.11a10.09,10.09,0,1,1-10.08-10.35A10.22,10.22,0,0,1,2201,1182.11Z" transform="translate(-754.06 -360)"/><path class="cls-6" d="M2190.93,1201.63h0a3.8,3.8,0,0,1-3.74-3.84v-9.34a3.79,3.79,0,0,1,3.74-3.83h0a3.78,3.78,0,0,1,3.73,3.83v9.34A3.79,3.79,0,0,1,2190.93,1201.63Z" transform="translate(-754.06 -360)"/><path class="cls-2" d="M2195.54,1160.75v12.66a3.75,3.75,0,0,1-3.69,3.79H2190a3.75,3.75,0,0,1-3.69-3.79v-12.66A3.74,3.74,0,0,1,2190,1157h1.84A3.74,3.74,0,0,1,2195.54,1160.75Z" transform="translate(-754.06 -360)"/><path class="cls-7" d="M2195.54,1160.75v4.62h-9.22v-4.62A3.74,3.74,0,0,1,2190,1157h1.84A3.74,3.74,0,0,1,2195.54,1160.75Z" transform="translate(-754.06 -360)"/><path class="cls-6" d="M2245.1,1182.11a10.08,10.08,0,1,1-10.08-10.35A10.22,10.22,0,0,1,2245.1,1182.11Z" transform="translate(-754.06 -360)"/><path class="cls-6" d="M2235,1201.63h0a3.79,3.79,0,0,1-3.73-3.84v-9.34a3.78,3.78,0,0,1,3.73-3.83h0a3.78,3.78,0,0,1,3.73,3.83v9.34A3.79,3.79,0,0,1,2235,1201.63Z" transform="translate(-754.06 -360)"/><path class="cls-2" d="M2239.63,1160.75v12.66a3.74,3.74,0,0,1-3.69,3.79h-1.84a3.75,3.75,0,0,1-3.69-3.79v-12.66a3.74,3.74,0,0,1,3.69-3.79h1.84A3.74,3.74,0,0,1,2239.63,1160.75Z" transform="translate(-754.06 -360)"/><path class="cls-17" d="M2239.63,1160.75v4.62h-9.22v-4.62a3.74,3.74,0,0,1,3.69-3.79h1.84A3.74,3.74,0,0,1,2239.63,1160.75Z" transform="translate(-754.06 -360)"/><path class="cls-6" d="M2269.86,1241.37a7.78,7.78,0,0,1-7.67,7.88h-91.63a7.78,7.78,0,0,1-7.67-7.88Z" transform="translate(-754.06 -360)"/><path class="cls-12" d="M2274,1290.86H2157.85a4.81,4.81,0,0,1-4.75-4.87h0a4.81,4.81,0,0,1,4.75-4.87H2274a4.81,4.81,0,0,1,4.75,4.87h0A4.81,4.81,0,0,1,2274,1290.86Z" transform="translate(-754.06 -360)"/><ellipse class="cls-19" cx="1433.4" cy="673.33" rx="5.74" ry="5.9"/><path class="cls-19" d="M2177.55,1009.94a2.82,2.82,0,0,1,2,.87,3,3,0,0,1,0,4.19,2.83,2.83,0,0,1-4.08,0,3,3,0,0,1,0-4.19,2.82,2.82,0,0,1,2-.87Zm0-1.92a4.68,4.68,0,0,0-3.36,1.43,5,5,0,0,0,0,6.9,4.66,4.66,0,0,0,6.72,0,5,5,0,0,0,0-6.9,4.68,4.68,0,0,0-3.36-1.43Z" transform="translate(-754.06 -360)"/><path class="cls-19" d="M2227.2,1000.76a6,6,0,0,1,0,8.35,5.64,5.64,0,0,1-8.12,0,6,6,0,0,1,0-8.35A5.64,5.64,0,0,1,2227.2,1000.76Z" transform="translate(-754.06 -360)"/><path class="cls-19" d="M2247.18,957a6,6,0,0,1,0,8.34,5.65,5.65,0,0,1-8.13,0,6,6,0,0,1,0-8.34A5.64,5.64,0,0,1,2247.18,957Z" transform="translate(-754.06 -360)"/><path class="cls-19" d="M2232,1086.33a4.23,4.23,0,0,1,0,5.87,4,4,0,0,1-5.71,0,4.23,4.23,0,0,1,0-5.87A4,4,0,0,1,2232,1086.33Z" transform="translate(-754.06 -360)"/><ellipse class="cls-19" cx="1483.52" cy="713.75" rx="4.04" ry="4.15"/><path class="cls-19" d="M2196.41,900.31a4.23,4.23,0,0,1,0,5.87,4,4,0,0,1-5.71,0,4.23,4.23,0,0,1,0-5.87A4,4,0,0,1,2196.41,900.31Z" transform="translate(-754.06 -360)"/></svg>